<mxfile host="Electron" agent="Mozilla/5.0 (Windows NT 10.0; Win64; x64) AppleWebKit/537.36 (KHTML, like Gecko) draw.io/26.2.15 Chrome/134.0.6998.205 Electron/35.2.1 Safari/537.36" version="26.2.15" pages="2">
  <diagram id="bRi_iZHggD-AGo6ihj1B" name="5/19">
    <mxGraphModel dx="1072" dy="636" grid="1" gridSize="10" guides="1" tooltips="1" connect="1" arrows="1" fold="1" page="1" pageScale="1" pageWidth="827" pageHeight="1169" math="0" shadow="0">
      <root>
        <mxCell id="0" />
        <mxCell id="1" parent="0" />
        <mxCell id="V-d-saW0YR5Iz8UCoTVw-1" value="杂合子" style="rounded=0;whiteSpace=wrap;html=1;" vertex="1" parent="1">
          <mxGeometry x="350" y="300" width="120" height="60" as="geometry" />
        </mxCell>
        <mxCell id="V-d-saW0YR5Iz8UCoTVw-2" value="显性纯合子" style="rounded=0;whiteSpace=wrap;html=1;" vertex="1" parent="1">
          <mxGeometry x="350" y="367" width="120" height="60" as="geometry" />
        </mxCell>
        <mxCell id="V-d-saW0YR5Iz8UCoTVw-3" value="隐性纯合子" style="rounded=0;whiteSpace=wrap;html=1;" vertex="1" parent="1">
          <mxGeometry x="350" y="437" width="120" height="60" as="geometry" />
        </mxCell>
        <mxCell id="V-d-saW0YR5Iz8UCoTVw-6" value="性状列表" style="swimlane;fontStyle=0;childLayout=stackLayout;horizontal=1;startSize=26;fillColor=none;horizontalStack=0;resizeParent=1;resizeParentMax=0;resizeLast=0;collapsible=1;marginBottom=0;whiteSpace=wrap;html=1;" vertex="1" parent="1">
          <mxGeometry x="190" y="315.5" width="140" height="166" as="geometry" />
        </mxCell>
        <mxCell id="V-d-saW0YR5Iz8UCoTVw-7" value="最大果实产量" style="text;strokeColor=none;fillColor=none;align=left;verticalAlign=top;spacingLeft=4;spacingRight=4;overflow=hidden;rotatable=0;points=[[0,0.5],[1,0.5]];portConstraint=eastwest;whiteSpace=wrap;html=1;" vertex="1" parent="V-d-saW0YR5Iz8UCoTVw-6">
          <mxGeometry y="26" width="140" height="26" as="geometry" />
        </mxCell>
        <mxCell id="V-d-saW0YR5Iz8UCoTVw-8" value="基础生长速度" style="text;strokeColor=none;fillColor=none;align=left;verticalAlign=top;spacingLeft=4;spacingRight=4;overflow=hidden;rotatable=0;points=[[0,0.5],[1,0.5]];portConstraint=eastwest;whiteSpace=wrap;html=1;" vertex="1" parent="V-d-saW0YR5Iz8UCoTVw-6">
          <mxGeometry y="52" width="140" height="26" as="geometry" />
        </mxCell>
        <mxCell id="V-d-saW0YR5Iz8UCoTVw-12" value="抗病能力" style="text;strokeColor=none;fillColor=none;align=left;verticalAlign=top;spacingLeft=4;spacingRight=4;overflow=hidden;rotatable=0;points=[[0,0.5],[1,0.5]];portConstraint=eastwest;whiteSpace=wrap;html=1;" vertex="1" parent="V-d-saW0YR5Iz8UCoTVw-6">
          <mxGeometry y="78" width="140" height="26" as="geometry" />
        </mxCell>
        <mxCell id="V-d-saW0YR5Iz8UCoTVw-9" value="耐旱能力(生长所需最低水资源)" style="text;strokeColor=none;fillColor=none;align=left;verticalAlign=top;spacingLeft=4;spacingRight=4;overflow=hidden;rotatable=0;points=[[0,0.5],[1,0.5]];portConstraint=eastwest;whiteSpace=wrap;html=1;" vertex="1" parent="V-d-saW0YR5Iz8UCoTVw-6">
          <mxGeometry y="104" width="140" height="36" as="geometry" />
        </mxCell>
        <mxCell id="V-d-saW0YR5Iz8UCoTVw-13" value="肥料吸收效果" style="text;strokeColor=none;fillColor=none;align=left;verticalAlign=top;spacingLeft=4;spacingRight=4;overflow=hidden;rotatable=0;points=[[0,0.5],[1,0.5]];portConstraint=eastwest;whiteSpace=wrap;html=1;" vertex="1" parent="V-d-saW0YR5Iz8UCoTVw-6">
          <mxGeometry y="140" width="140" height="26" as="geometry" />
        </mxCell>
        <mxCell id="V-d-saW0YR5Iz8UCoTVw-30" value="" style="group" vertex="1" connectable="0" parent="1">
          <mxGeometry x="540" y="200" width="360" height="86" as="geometry" />
        </mxCell>
        <mxCell id="V-d-saW0YR5Iz8UCoTVw-14" value="产量-显优型基因" style="text;strokeColor=none;fillColor=none;align=left;verticalAlign=top;spacingLeft=4;spacingRight=4;overflow=hidden;rotatable=0;points=[[0,0.5],[1,0.5]];portConstraint=eastwest;whiteSpace=wrap;html=1;" vertex="1" parent="V-d-saW0YR5Iz8UCoTVw-30">
          <mxGeometry x="120" width="120" height="26" as="geometry" />
        </mxCell>
        <mxCell id="V-d-saW0YR5Iz8UCoTVw-23" value="AA:产量增加&lt;div&gt;1&lt;/div&gt;" style="rounded=0;whiteSpace=wrap;html=1;" vertex="1" parent="V-d-saW0YR5Iz8UCoTVw-30">
          <mxGeometry y="26" width="120" height="60" as="geometry" />
        </mxCell>
        <mxCell id="V-d-saW0YR5Iz8UCoTVw-24" value="Aa:产量减少/不变&lt;div&gt;2&lt;/div&gt;" style="rounded=0;whiteSpace=wrap;html=1;" vertex="1" parent="V-d-saW0YR5Iz8UCoTVw-30">
          <mxGeometry x="120" y="26" width="120" height="60" as="geometry" />
        </mxCell>
        <mxCell id="V-d-saW0YR5Iz8UCoTVw-25" value="aa:产量减少/不变&lt;div&gt;1&lt;/div&gt;" style="rounded=0;whiteSpace=wrap;html=1;" vertex="1" parent="V-d-saW0YR5Iz8UCoTVw-30">
          <mxGeometry x="240" y="26" width="120" height="60" as="geometry" />
        </mxCell>
        <mxCell id="V-d-saW0YR5Iz8UCoTVw-31" value="" style="group" vertex="1" connectable="0" parent="1">
          <mxGeometry x="540" y="310" width="360" height="86" as="geometry" />
        </mxCell>
        <mxCell id="V-d-saW0YR5Iz8UCoTVw-32" value="产量-杂优型基因" style="text;strokeColor=none;fillColor=none;align=left;verticalAlign=top;spacingLeft=4;spacingRight=4;overflow=hidden;rotatable=0;points=[[0,0.5],[1,0.5]];portConstraint=eastwest;whiteSpace=wrap;html=1;" vertex="1" parent="V-d-saW0YR5Iz8UCoTVw-31">
          <mxGeometry x="120" width="120" height="26" as="geometry" />
        </mxCell>
        <mxCell id="V-d-saW0YR5Iz8UCoTVw-33" value="AA:产量减少/不变&lt;div&gt;1&lt;/div&gt;" style="rounded=0;whiteSpace=wrap;html=1;" vertex="1" parent="V-d-saW0YR5Iz8UCoTVw-31">
          <mxGeometry y="26" width="120" height="60" as="geometry" />
        </mxCell>
        <mxCell id="V-d-saW0YR5Iz8UCoTVw-34" value="Aa:产量增加&lt;div&gt;2&lt;/div&gt;" style="rounded=0;whiteSpace=wrap;html=1;" vertex="1" parent="V-d-saW0YR5Iz8UCoTVw-31">
          <mxGeometry x="120" y="26" width="120" height="60" as="geometry" />
        </mxCell>
        <mxCell id="V-d-saW0YR5Iz8UCoTVw-35" value="aa:产量减少/不变&lt;div&gt;1&lt;/div&gt;" style="rounded=0;whiteSpace=wrap;html=1;" vertex="1" parent="V-d-saW0YR5Iz8UCoTVw-31">
          <mxGeometry x="240" y="26" width="120" height="60" as="geometry" />
        </mxCell>
        <mxCell id="V-d-saW0YR5Iz8UCoTVw-36" value="" style="group" vertex="1" connectable="0" parent="1">
          <mxGeometry x="540" y="418.5" width="360" height="86" as="geometry" />
        </mxCell>
        <mxCell id="V-d-saW0YR5Iz8UCoTVw-37" value="产量-隐优型基因" style="text;strokeColor=none;fillColor=none;align=left;verticalAlign=top;spacingLeft=4;spacingRight=4;overflow=hidden;rotatable=0;points=[[0,0.5],[1,0.5]];portConstraint=eastwest;whiteSpace=wrap;html=1;" vertex="1" parent="V-d-saW0YR5Iz8UCoTVw-36">
          <mxGeometry x="120" width="120" height="26" as="geometry" />
        </mxCell>
        <mxCell id="V-d-saW0YR5Iz8UCoTVw-38" value="AA:产量减少/不变&lt;div&gt;1&lt;/div&gt;" style="rounded=0;whiteSpace=wrap;html=1;" vertex="1" parent="V-d-saW0YR5Iz8UCoTVw-36">
          <mxGeometry y="26" width="120" height="60" as="geometry" />
        </mxCell>
        <mxCell id="V-d-saW0YR5Iz8UCoTVw-39" value="Aa:产量减少/不变&lt;div&gt;2&lt;/div&gt;" style="rounded=0;whiteSpace=wrap;html=1;" vertex="1" parent="V-d-saW0YR5Iz8UCoTVw-36">
          <mxGeometry x="120" y="26" width="120" height="60" as="geometry" />
        </mxCell>
        <mxCell id="V-d-saW0YR5Iz8UCoTVw-40" value="aa:产量增加&lt;div&gt;1&lt;/div&gt;" style="rounded=0;whiteSpace=wrap;html=1;" vertex="1" parent="V-d-saW0YR5Iz8UCoTVw-36">
          <mxGeometry x="240" y="26" width="120" height="60" as="geometry" />
        </mxCell>
        <mxCell id="V-d-saW0YR5Iz8UCoTVw-41" value="土豆A" style="shape=cylinder3;whiteSpace=wrap;html=1;boundedLbl=1;backgroundOutline=1;size=15;" vertex="1" parent="1">
          <mxGeometry x="730" y="760" width="60" height="80" as="geometry" />
        </mxCell>
        <mxCell id="V-d-saW0YR5Iz8UCoTVw-70" style="edgeStyle=orthogonalEdgeStyle;rounded=0;orthogonalLoop=1;jettySize=auto;html=1;" edge="1" parent="1" source="V-d-saW0YR5Iz8UCoTVw-42">
          <mxGeometry relative="1" as="geometry">
            <mxPoint x="760" y="910" as="targetPoint" />
            <Array as="points">
              <mxPoint x="940" y="910" />
            </Array>
          </mxGeometry>
        </mxCell>
        <mxCell id="V-d-saW0YR5Iz8UCoTVw-71" value="传播花粉" style="edgeLabel;html=1;align=center;verticalAlign=middle;resizable=0;points=[];" vertex="1" connectable="0" parent="V-d-saW0YR5Iz8UCoTVw-70">
          <mxGeometry x="0.1246" y="-1" relative="1" as="geometry">
            <mxPoint as="offset" />
          </mxGeometry>
        </mxCell>
        <mxCell id="V-d-saW0YR5Iz8UCoTVw-42" value="土豆B" style="shape=cylinder3;whiteSpace=wrap;html=1;boundedLbl=1;backgroundOutline=1;size=15;" vertex="1" parent="1">
          <mxGeometry x="910" y="760" width="60" height="80" as="geometry" />
        </mxCell>
        <mxCell id="V-d-saW0YR5Iz8UCoTVw-48" value="染色体数据类" style="swimlane;fontStyle=1;align=center;verticalAlign=top;childLayout=stackLayout;horizontal=1;startSize=26;horizontalStack=0;resizeParent=1;resizeParentMax=0;resizeLast=0;collapsible=1;marginBottom=0;whiteSpace=wrap;html=1;" vertex="1" parent="1">
          <mxGeometry x="470" y="860" width="185" height="240" as="geometry" />
        </mxCell>
        <mxCell id="V-d-saW0YR5Iz8UCoTVw-49" value="字段:&lt;div&gt;基因:List&amp;lt;Char&amp;gt; {&#39;A&#39;,&#39;a&#39;}&lt;/div&gt;&lt;div&gt;&lt;br&gt;&lt;div&gt;&lt;span style=&quot;background-color: transparent; color: light-dark(rgb(0, 0, 0), rgb(255, 255, 255)); text-align: center;&quot;&gt;突变概率:0.001%&lt;/span&gt;&lt;/div&gt;&lt;/div&gt;&lt;div&gt;&lt;span style=&quot;background-color: transparent; color: light-dark(rgb(0, 0, 0), rgb(255, 255, 255)); text-align: center;&quot;&gt;&lt;br&gt;&lt;/span&gt;&lt;/div&gt;&lt;div&gt;&lt;div&gt;性状:&lt;span style=&quot;text-align: center; background-color: transparent; color: light-dark(rgb(0, 0, 0), rgb(255, 255, 255));&quot;&gt;杂合优产型基因(通过修改不同的性状实现不同的效果)&lt;/span&gt;&lt;/div&gt;&lt;/div&gt;&lt;div&gt;&lt;span style=&quot;text-align: center; background-color: transparent; color: light-dark(rgb(0, 0, 0), rgb(255, 255, 255));&quot;&gt;&lt;br&gt;&lt;/span&gt;&lt;/div&gt;" style="text;strokeColor=none;fillColor=none;align=left;verticalAlign=top;spacingLeft=4;spacingRight=4;overflow=hidden;rotatable=0;points=[[0,0.5],[1,0.5]];portConstraint=eastwest;whiteSpace=wrap;html=1;" vertex="1" parent="V-d-saW0YR5Iz8UCoTVw-48">
          <mxGeometry y="26" width="185" height="104" as="geometry" />
        </mxCell>
        <mxCell id="V-d-saW0YR5Iz8UCoTVw-50" value="" style="line;strokeWidth=1;fillColor=none;align=left;verticalAlign=middle;spacingTop=-1;spacingLeft=3;spacingRight=3;rotatable=0;labelPosition=right;points=[];portConstraint=eastwest;strokeColor=inherit;" vertex="1" parent="V-d-saW0YR5Iz8UCoTVw-48">
          <mxGeometry y="130" width="185" height="8" as="geometry" />
        </mxCell>
        <mxCell id="V-d-saW0YR5Iz8UCoTVw-51" value="函数:&lt;div&gt;获取当前表达的性状(item 染色体所处的物体上)&lt;/div&gt;&lt;div&gt;{通过So 修改Item内部数值}&lt;/div&gt;" style="text;strokeColor=none;fillColor=none;align=left;verticalAlign=top;spacingLeft=4;spacingRight=4;overflow=hidden;rotatable=0;points=[[0,0.5],[1,0.5]];portConstraint=eastwest;whiteSpace=wrap;html=1;" vertex="1" parent="V-d-saW0YR5Iz8UCoTVw-48">
          <mxGeometry y="138" width="185" height="102" as="geometry" />
        </mxCell>
        <mxCell id="V-d-saW0YR5Iz8UCoTVw-55" style="edgeStyle=orthogonalEdgeStyle;rounded=0;orthogonalLoop=1;jettySize=auto;html=1;entryX=0;entryY=0.5;entryDx=0;entryDy=0;entryPerimeter=0;" edge="1" parent="1" source="V-d-saW0YR5Iz8UCoTVw-48" target="V-d-saW0YR5Iz8UCoTVw-41">
          <mxGeometry relative="1" as="geometry">
            <Array as="points">
              <mxPoint x="710" y="890" />
              <mxPoint x="710" y="800" />
            </Array>
          </mxGeometry>
        </mxCell>
        <mxCell id="V-d-saW0YR5Iz8UCoTVw-60" style="edgeStyle=orthogonalEdgeStyle;rounded=0;orthogonalLoop=1;jettySize=auto;html=1;entryX=1;entryY=0.5;entryDx=0;entryDy=0;entryPerimeter=0;exitX=0;exitY=0.5;exitDx=0;exitDy=0;" edge="1" parent="1" source="V-d-saW0YR5Iz8UCoTVw-57" target="V-d-saW0YR5Iz8UCoTVw-42">
          <mxGeometry relative="1" as="geometry">
            <mxPoint x="1040" y="998.0000000000002" as="sourcePoint" />
          </mxGeometry>
        </mxCell>
        <mxCell id="V-d-saW0YR5Iz8UCoTVw-74" style="edgeStyle=orthogonalEdgeStyle;rounded=0;orthogonalLoop=1;jettySize=auto;html=1;entryX=0.497;entryY=0.05;entryDx=0;entryDy=0;entryPerimeter=0;" edge="1" parent="1" source="V-d-saW0YR5Iz8UCoTVw-65" target="V-d-saW0YR5Iz8UCoTVw-83">
          <mxGeometry relative="1" as="geometry">
            <mxPoint x="782" y="1276" as="targetPoint" />
          </mxGeometry>
        </mxCell>
        <mxCell id="V-d-saW0YR5Iz8UCoTVw-75" value="收获:产量为110% 因为父亲的性状中有增加输出产量" style="edgeLabel;html=1;align=center;verticalAlign=middle;resizable=0;points=[];" vertex="1" connectable="0" parent="V-d-saW0YR5Iz8UCoTVw-74">
          <mxGeometry x="0.1911" y="-1" relative="1" as="geometry">
            <mxPoint as="offset" />
          </mxGeometry>
        </mxCell>
        <mxCell id="V-d-saW0YR5Iz8UCoTVw-76" value="收获11个土豆" style="edgeLabel;html=1;align=center;verticalAlign=middle;resizable=0;points=[];" vertex="1" connectable="0" parent="V-d-saW0YR5Iz8UCoTVw-74">
          <mxGeometry x="0.5756" y="2" relative="1" as="geometry">
            <mxPoint as="offset" />
          </mxGeometry>
        </mxCell>
        <mxCell id="V-d-saW0YR5Iz8UCoTVw-65" value="繁殖类" style="swimlane;fontStyle=1;align=center;verticalAlign=top;childLayout=stackLayout;horizontal=1;startSize=26;horizontalStack=0;resizeParent=1;resizeParentMax=0;resizeLast=0;collapsible=1;marginBottom=0;whiteSpace=wrap;html=1;" vertex="1" parent="1">
          <mxGeometry x="690" y="990" width="185" height="160" as="geometry" />
        </mxCell>
        <mxCell id="V-d-saW0YR5Iz8UCoTVw-66" value="字段:" style="text;strokeColor=none;fillColor=none;align=left;verticalAlign=top;spacingLeft=4;spacingRight=4;overflow=hidden;rotatable=0;points=[[0,0.5],[1,0.5]];portConstraint=eastwest;whiteSpace=wrap;html=1;" vertex="1" parent="V-d-saW0YR5Iz8UCoTVw-65">
          <mxGeometry y="26" width="185" height="39" as="geometry" />
        </mxCell>
        <mxCell id="V-d-saW0YR5Iz8UCoTVw-67" value="" style="line;strokeWidth=1;fillColor=none;align=left;verticalAlign=middle;spacingTop=-1;spacingLeft=3;spacingRight=3;rotatable=0;labelPosition=right;points=[];portConstraint=eastwest;strokeColor=inherit;" vertex="1" parent="V-d-saW0YR5Iz8UCoTVw-65">
          <mxGeometry y="65" width="185" height="8" as="geometry" />
        </mxCell>
        <mxCell id="V-d-saW0YR5Iz8UCoTVw-68" value="函数:&lt;div&gt;交配(染色体数据 x,染色体数据y){根据两条染色体中的 基因 生成新的基因对 输出 例如(输出了aa的基因)}&lt;/div&gt;" style="text;strokeColor=none;fillColor=none;align=left;verticalAlign=top;spacingLeft=4;spacingRight=4;overflow=hidden;rotatable=0;points=[[0,0.5],[1,0.5]];portConstraint=eastwest;whiteSpace=wrap;html=1;" vertex="1" parent="V-d-saW0YR5Iz8UCoTVw-65">
          <mxGeometry y="73" width="185" height="87" as="geometry" />
        </mxCell>
        <mxCell id="V-d-saW0YR5Iz8UCoTVw-69" style="edgeStyle=orthogonalEdgeStyle;rounded=0;orthogonalLoop=1;jettySize=auto;html=1;" edge="1" parent="1" source="V-d-saW0YR5Iz8UCoTVw-41">
          <mxGeometry relative="1" as="geometry">
            <mxPoint x="759" y="990" as="targetPoint" />
          </mxGeometry>
        </mxCell>
        <mxCell id="V-d-saW0YR5Iz8UCoTVw-72" value="受精" style="edgeLabel;html=1;align=center;verticalAlign=middle;resizable=0;points=[];" vertex="1" connectable="0" parent="V-d-saW0YR5Iz8UCoTVw-69">
          <mxGeometry x="0.3896" y="-2" relative="1" as="geometry">
            <mxPoint as="offset" />
          </mxGeometry>
        </mxCell>
        <mxCell id="V-d-saW0YR5Iz8UCoTVw-83" value="11个土豆子中&lt;div&gt;5个为Aa&lt;/div&gt;&lt;div&gt;5个为aa&lt;/div&gt;&lt;div&gt;1个为AA(基因突变)&lt;/div&gt;" style="rounded=0;whiteSpace=wrap;html=1;" vertex="1" parent="1">
          <mxGeometry x="722.5" y="1280" width="120" height="60" as="geometry" />
        </mxCell>
        <mxCell id="V-d-saW0YR5Iz8UCoTVw-88" style="edgeStyle=orthogonalEdgeStyle;rounded=0;orthogonalLoop=1;jettySize=auto;html=1;entryX=0;entryY=0;entryDx=0;entryDy=0;" edge="1" parent="1" source="V-d-saW0YR5Iz8UCoTVw-84" target="V-d-saW0YR5Iz8UCoTVw-48">
          <mxGeometry relative="1" as="geometry" />
        </mxCell>
        <mxCell id="V-d-saW0YR5Iz8UCoTVw-89" value="每次Load时都将调用染色体列表中所有的表达性状方法" style="edgeLabel;html=1;align=center;verticalAlign=middle;resizable=0;points=[];" vertex="1" connectable="0" parent="V-d-saW0YR5Iz8UCoTVw-88">
          <mxGeometry x="-0.0265" y="-2" relative="1" as="geometry">
            <mxPoint as="offset" />
          </mxGeometry>
        </mxCell>
        <mxCell id="V-d-saW0YR5Iz8UCoTVw-84" value="土豆数值类" style="swimlane;fontStyle=1;align=center;verticalAlign=top;childLayout=stackLayout;horizontal=1;startSize=26;horizontalStack=0;resizeParent=1;resizeParentMax=0;resizeLast=0;collapsible=1;marginBottom=0;whiteSpace=wrap;html=1;" vertex="1" parent="1">
          <mxGeometry x="360" y="590" width="220" height="151" as="geometry" />
        </mxCell>
        <mxCell id="V-d-saW0YR5Iz8UCoTVw-85" value="字段:&lt;div&gt;1.产率:每次收获的土豆数量&lt;/div&gt;&lt;div&gt;2.生长速率:从种子到成熟所消耗的时间&lt;/div&gt;&lt;div&gt;3.营养价值:食用后可回复多少饱食度?&lt;/div&gt;" style="text;strokeColor=none;fillColor=none;align=left;verticalAlign=top;spacingLeft=4;spacingRight=4;overflow=hidden;rotatable=0;points=[[0,0.5],[1,0.5]];portConstraint=eastwest;whiteSpace=wrap;html=1;" vertex="1" parent="V-d-saW0YR5Iz8UCoTVw-84">
          <mxGeometry y="26" width="220" height="74" as="geometry" />
        </mxCell>
        <mxCell id="V-d-saW0YR5Iz8UCoTVw-86" value="" style="line;strokeWidth=1;fillColor=none;align=left;verticalAlign=middle;spacingTop=-1;spacingLeft=3;spacingRight=3;rotatable=0;labelPosition=right;points=[];portConstraint=eastwest;strokeColor=inherit;" vertex="1" parent="V-d-saW0YR5Iz8UCoTVw-84">
          <mxGeometry y="100" width="220" height="8" as="geometry" />
        </mxCell>
        <mxCell id="V-d-saW0YR5Iz8UCoTVw-87" value="函数:" style="text;strokeColor=none;fillColor=none;align=left;verticalAlign=top;spacingLeft=4;spacingRight=4;overflow=hidden;rotatable=0;points=[[0,0.5],[1,0.5]];portConstraint=eastwest;whiteSpace=wrap;html=1;" vertex="1" parent="V-d-saW0YR5Iz8UCoTVw-84">
          <mxGeometry y="108" width="220" height="43" as="geometry" />
        </mxCell>
        <mxCell id="V-d-saW0YR5Iz8UCoTVw-57" value="字段:&lt;div&gt;基因:List&amp;lt;Char&amp;gt; {&#39;a&#39;,&#39;a&#39;}&lt;div&gt;性状:&lt;span style=&quot;text-align: center; background-color: transparent; color: light-dark(rgb(0, 0, 0), rgb(255, 255, 255));&quot;&gt;杂合优产型基因&lt;/span&gt;&lt;/div&gt;&lt;/div&gt;" style="text;strokeColor=default;fillColor=none;align=left;verticalAlign=top;spacingLeft=4;spacingRight=4;overflow=hidden;rotatable=0;points=[[0,0.5],[1,0.5]];portConstraint=eastwest;whiteSpace=wrap;html=1;" vertex="1" parent="1">
          <mxGeometry x="1030" y="773" width="185" height="54" as="geometry" />
        </mxCell>
      </root>
    </mxGraphModel>
  </diagram>
  <diagram id="U1zKa_XoFFPRjhU4kY4g" name="TileMap优化">
    <mxGraphModel dx="1567" dy="439" grid="1" gridSize="10" guides="1" tooltips="1" connect="1" arrows="1" fold="1" page="1" pageScale="1" pageWidth="827" pageHeight="1169" math="0" shadow="0">
      <root>
        <mxCell id="0" />
        <mxCell id="1" parent="0" />
        <mxCell id="ox2kQ0siaJFA0jmCOrwc-1" value="瓦片数据:TileData" style="swimlane;fontStyle=1;align=center;verticalAlign=top;childLayout=stackLayout;horizontal=1;startSize=26;horizontalStack=0;resizeParent=1;resizeParentMax=0;resizeLast=0;collapsible=1;marginBottom=0;whiteSpace=wrap;html=1;" vertex="1" parent="1">
          <mxGeometry x="287.5" y="424" width="320" height="161" as="geometry" />
        </mxCell>
        <mxCell id="ox2kQ0siaJFA0jmCOrwc-2" value="字段:&lt;div&gt;string 地图块的名字 //(映射对应的TileBase)&lt;/div&gt;&lt;div&gt;vector2 地图块的位置&lt;/div&gt;&lt;div&gt;float 地图块的耐久 //(玩家拆除此tile所要消耗的时间)&lt;/div&gt;" style="text;strokeColor=none;fillColor=none;align=left;verticalAlign=top;spacingLeft=4;spacingRight=4;overflow=hidden;rotatable=0;points=[[0,0.5],[1,0.5]];portConstraint=eastwest;whiteSpace=wrap;html=1;" vertex="1" parent="ox2kQ0siaJFA0jmCOrwc-1">
          <mxGeometry y="26" width="320" height="84" as="geometry" />
        </mxCell>
        <mxCell id="ox2kQ0siaJFA0jmCOrwc-3" value="" style="line;strokeWidth=1;fillColor=none;align=left;verticalAlign=middle;spacingTop=-1;spacingLeft=3;spacingRight=3;rotatable=0;labelPosition=right;points=[];portConstraint=eastwest;strokeColor=inherit;" vertex="1" parent="ox2kQ0siaJFA0jmCOrwc-1">
          <mxGeometry y="110" width="320" height="8" as="geometry" />
        </mxCell>
        <mxCell id="ox2kQ0siaJFA0jmCOrwc-4" value="函数:&lt;div&gt;Update(){&lt;span style=&quot;background-color: transparent; color: light-dark(rgb(0, 0, 0), rgb(255, 255, 255));&quot;&gt;//自定义的更新函数&lt;/span&gt;&lt;span style=&quot;background-color: transparent; color: light-dark(rgb(0, 0, 0), rgb(255, 255, 255));&quot;&gt;}&lt;/span&gt;&lt;/div&gt;" style="text;strokeColor=none;fillColor=none;align=left;verticalAlign=top;spacingLeft=4;spacingRight=4;overflow=hidden;rotatable=0;points=[[0,0.5],[1,0.5]];portConstraint=eastwest;whiteSpace=wrap;html=1;" vertex="1" parent="ox2kQ0siaJFA0jmCOrwc-1">
          <mxGeometry y="118" width="320" height="43" as="geometry" />
        </mxCell>
        <mxCell id="ox2kQ0siaJFA0jmCOrwc-5" value="耕地" style="swimlane;fontStyle=1;align=center;verticalAlign=top;childLayout=stackLayout;horizontal=1;startSize=26;horizontalStack=0;resizeParent=1;resizeParentMax=0;resizeLast=0;collapsible=1;marginBottom=0;whiteSpace=wrap;html=1;" vertex="1" parent="1">
          <mxGeometry x="-80" y="389" width="255" height="141" as="geometry" />
        </mxCell>
        <mxCell id="ox2kQ0siaJFA0jmCOrwc-6" value="&lt;font style=&quot;font-size: 10px;&quot;&gt;字段:&lt;/font&gt;&lt;div&gt;&lt;font style=&quot;font-size: 10px;&quot;&gt;float 耕地肥力 //控制作物生长速度的系数之一&lt;/font&gt;&lt;/div&gt;&lt;div&gt;&lt;font style=&quot;font-size: 10px;&quot;&gt;float 耕地水分 //控制作物是否能生长的条件之一&lt;/font&gt;&lt;/div&gt;" style="text;strokeColor=none;fillColor=none;align=left;verticalAlign=top;spacingLeft=4;spacingRight=4;overflow=hidden;rotatable=0;points=[[0,0.5],[1,0.5]];portConstraint=eastwest;whiteSpace=wrap;html=1;" vertex="1" parent="ox2kQ0siaJFA0jmCOrwc-5">
          <mxGeometry y="26" width="255" height="64" as="geometry" />
        </mxCell>
        <mxCell id="ox2kQ0siaJFA0jmCOrwc-7" value="" style="line;strokeWidth=1;fillColor=none;align=left;verticalAlign=middle;spacingTop=-1;spacingLeft=3;spacingRight=3;rotatable=0;labelPosition=right;points=[];portConstraint=eastwest;strokeColor=inherit;" vertex="1" parent="ox2kQ0siaJFA0jmCOrwc-5">
          <mxGeometry y="90" width="255" height="8" as="geometry" />
        </mxCell>
        <mxCell id="ox2kQ0siaJFA0jmCOrwc-8" value="&lt;font style=&quot;font-size: 10px;&quot;&gt;函数:&lt;/font&gt;" style="text;strokeColor=none;fillColor=none;align=left;verticalAlign=top;spacingLeft=4;spacingRight=4;overflow=hidden;rotatable=0;points=[[0,0.5],[1,0.5]];portConstraint=eastwest;whiteSpace=wrap;html=1;" vertex="1" parent="ox2kQ0siaJFA0jmCOrwc-5">
          <mxGeometry y="98" width="255" height="43" as="geometry" />
        </mxCell>
        <mxCell id="ox2kQ0siaJFA0jmCOrwc-15" style="edgeStyle=orthogonalEdgeStyle;rounded=0;orthogonalLoop=1;jettySize=auto;html=1;entryX=0;entryY=0.5;entryDx=0;entryDy=0;" edge="1" parent="1" source="ox2kQ0siaJFA0jmCOrwc-11" target="ox2kQ0siaJFA0jmCOrwc-4">
          <mxGeometry relative="1" as="geometry" />
        </mxCell>
        <mxCell id="ox2kQ0siaJFA0jmCOrwc-16" value="继承" style="edgeLabel;html=1;align=center;verticalAlign=middle;resizable=0;points=[];" vertex="1" connectable="0" parent="ox2kQ0siaJFA0jmCOrwc-15">
          <mxGeometry x="0.1524" relative="1" as="geometry">
            <mxPoint as="offset" />
          </mxGeometry>
        </mxCell>
        <mxCell id="ox2kQ0siaJFA0jmCOrwc-11" value="草地" style="swimlane;fontStyle=1;align=center;verticalAlign=top;childLayout=stackLayout;horizontal=1;startSize=26;horizontalStack=0;resizeParent=1;resizeParentMax=0;resizeLast=0;collapsible=1;marginBottom=0;whiteSpace=wrap;html=1;" vertex="1" parent="1">
          <mxGeometry x="-60" y="610" width="255" height="170" as="geometry" />
        </mxCell>
        <mxCell id="ox2kQ0siaJFA0jmCOrwc-12" value="&lt;font style=&quot;font-size: 10px;&quot;&gt;字段:&lt;/font&gt;&lt;div&gt;&lt;font style=&quot;font-size: 10px;&quot;&gt;float 肥力 //控制作物生长速度的系数之一&lt;/font&gt;&lt;/div&gt;&lt;div&gt;&lt;font style=&quot;font-size: 10px;&quot;&gt;float 水分 //控制作物是否能生长的条件之一&lt;/font&gt;&lt;/div&gt;" style="text;strokeColor=none;fillColor=none;align=left;verticalAlign=top;spacingLeft=4;spacingRight=4;overflow=hidden;rotatable=0;points=[[0,0.5],[1,0.5]];portConstraint=eastwest;whiteSpace=wrap;html=1;" vertex="1" parent="ox2kQ0siaJFA0jmCOrwc-11">
          <mxGeometry y="26" width="255" height="64" as="geometry" />
        </mxCell>
        <mxCell id="ox2kQ0siaJFA0jmCOrwc-13" value="" style="line;strokeWidth=1;fillColor=none;align=left;verticalAlign=middle;spacingTop=-1;spacingLeft=3;spacingRight=3;rotatable=0;labelPosition=right;points=[];portConstraint=eastwest;strokeColor=inherit;" vertex="1" parent="ox2kQ0siaJFA0jmCOrwc-11">
          <mxGeometry y="90" width="255" height="8" as="geometry" />
        </mxCell>
        <mxCell id="ox2kQ0siaJFA0jmCOrwc-14" value="&lt;font style=&quot;font-size: 10px;&quot;&gt;函数:&lt;/font&gt;&lt;div&gt;&lt;font style=&quot;font-size: 10px;&quot;&gt;override Update(){base.Update();//重写函数 模拟草地上随机生成野生的植物 肥力和水分适合的情况下 生成野生植物的概率越大}&lt;/font&gt;&lt;/div&gt;" style="text;strokeColor=none;fillColor=none;align=left;verticalAlign=top;spacingLeft=4;spacingRight=4;overflow=hidden;rotatable=0;points=[[0,0.5],[1,0.5]];portConstraint=eastwest;whiteSpace=wrap;html=1;" vertex="1" parent="ox2kQ0siaJFA0jmCOrwc-11">
          <mxGeometry y="98" width="255" height="72" as="geometry" />
        </mxCell>
        <mxCell id="ox2kQ0siaJFA0jmCOrwc-17" value="水" style="swimlane;fontStyle=1;align=center;verticalAlign=top;childLayout=stackLayout;horizontal=1;startSize=26;horizontalStack=0;resizeParent=1;resizeParentMax=0;resizeLast=0;collapsible=1;marginBottom=0;whiteSpace=wrap;html=1;" vertex="1" parent="1">
          <mxGeometry x="340" y="680" width="255" height="141" as="geometry" />
        </mxCell>
        <mxCell id="ox2kQ0siaJFA0jmCOrwc-18" value="&lt;div&gt;&lt;font style=&quot;font-size: 10px;&quot;&gt;float 水深 //描述当前瓦片-水的深度 玩家的各种行为会使水面下降&lt;/font&gt;&lt;/div&gt;" style="text;strokeColor=none;fillColor=none;align=left;verticalAlign=top;spacingLeft=4;spacingRight=4;overflow=hidden;rotatable=0;points=[[0,0.5],[1,0.5]];portConstraint=eastwest;whiteSpace=wrap;html=1;" vertex="1" parent="ox2kQ0siaJFA0jmCOrwc-17">
          <mxGeometry y="26" width="255" height="64" as="geometry" />
        </mxCell>
        <mxCell id="ox2kQ0siaJFA0jmCOrwc-19" value="" style="line;strokeWidth=1;fillColor=none;align=left;verticalAlign=middle;spacingTop=-1;spacingLeft=3;spacingRight=3;rotatable=0;labelPosition=right;points=[];portConstraint=eastwest;strokeColor=inherit;" vertex="1" parent="ox2kQ0siaJFA0jmCOrwc-17">
          <mxGeometry y="90" width="255" height="8" as="geometry" />
        </mxCell>
        <mxCell id="ox2kQ0siaJFA0jmCOrwc-20" value="&lt;font style=&quot;font-size: 10px;&quot;&gt;函数:&lt;/font&gt;" style="text;strokeColor=none;fillColor=none;align=left;verticalAlign=top;spacingLeft=4;spacingRight=4;overflow=hidden;rotatable=0;points=[[0,0.5],[1,0.5]];portConstraint=eastwest;whiteSpace=wrap;html=1;" vertex="1" parent="ox2kQ0siaJFA0jmCOrwc-17">
          <mxGeometry y="98" width="255" height="43" as="geometry" />
        </mxCell>
        <mxCell id="ox2kQ0siaJFA0jmCOrwc-21" style="edgeStyle=orthogonalEdgeStyle;rounded=0;orthogonalLoop=1;jettySize=auto;html=1;entryX=0.007;entryY=1.019;entryDx=0;entryDy=0;exitX=0.5;exitY=0;exitDx=0;exitDy=0;entryPerimeter=0;" edge="1" parent="1" source="ox2kQ0siaJFA0jmCOrwc-17" target="ox2kQ0siaJFA0jmCOrwc-4">
          <mxGeometry relative="1" as="geometry">
            <mxPoint x="78" y="620" as="sourcePoint" />
            <mxPoint x="310" y="570" as="targetPoint" />
          </mxGeometry>
        </mxCell>
        <mxCell id="ox2kQ0siaJFA0jmCOrwc-22" value="继承" style="edgeLabel;html=1;align=center;verticalAlign=middle;resizable=0;points=[];" vertex="1" connectable="0" parent="ox2kQ0siaJFA0jmCOrwc-21">
          <mxGeometry x="0.1524" relative="1" as="geometry">
            <mxPoint as="offset" />
          </mxGeometry>
        </mxCell>
        <mxCell id="ox2kQ0siaJFA0jmCOrwc-24" value="" style="group" vertex="1" connectable="0" parent="1">
          <mxGeometry x="240" y="459.5" as="geometry" />
        </mxCell>
        <mxCell id="ox2kQ0siaJFA0jmCOrwc-9" style="edgeStyle=orthogonalEdgeStyle;rounded=0;orthogonalLoop=1;jettySize=auto;html=1;entryX=-0.003;entryY=0.296;entryDx=0;entryDy=0;entryPerimeter=0;" edge="1" parent="ox2kQ0siaJFA0jmCOrwc-24" source="ox2kQ0siaJFA0jmCOrwc-5" target="ox2kQ0siaJFA0jmCOrwc-2">
          <mxGeometry relative="1" as="geometry" />
        </mxCell>
        <mxCell id="ox2kQ0siaJFA0jmCOrwc-23" value="继承" style="edgeLabel;html=1;align=center;verticalAlign=middle;resizable=0;points=[];" vertex="1" connectable="0" parent="ox2kQ0siaJFA0jmCOrwc-24">
          <mxGeometry as="geometry" />
        </mxCell>
        <mxCell id="ox2kQ0siaJFA0jmCOrwc-35" style="edgeStyle=orthogonalEdgeStyle;rounded=0;orthogonalLoop=1;jettySize=auto;html=1;" edge="1" parent="1" source="ox2kQ0siaJFA0jmCOrwc-31" target="ox2kQ0siaJFA0jmCOrwc-1">
          <mxGeometry relative="1" as="geometry" />
        </mxCell>
        <mxCell id="ox2kQ0siaJFA0jmCOrwc-31" value="MapCore" style="swimlane;fontStyle=1;align=center;verticalAlign=top;childLayout=stackLayout;horizontal=1;startSize=26;horizontalStack=0;resizeParent=1;resizeParentMax=0;resizeLast=0;collapsible=1;marginBottom=0;whiteSpace=wrap;html=1;" vertex="1" parent="1">
          <mxGeometry x="320" y="30" width="255" height="230" as="geometry" />
        </mxCell>
        <mxCell id="ox2kQ0siaJFA0jmCOrwc-32" value="&lt;span style=&quot;font-size: 10px;&quot;&gt;Dic&amp;lt;key:vectroy2 value:Tiledata&amp;gt; 并行的tile字典&lt;/span&gt;&lt;div&gt;&lt;span style=&quot;font-size: 10px;&quot;&gt;&lt;br&gt;&lt;/span&gt;&lt;/div&gt;&lt;div&gt;&lt;span style=&quot;font-size: 10px;&quot;&gt;TileMap tilemap的引用 //负责绘制对应的tilebase在Grid上面&lt;/span&gt;&lt;/div&gt;" style="text;strokeColor=none;fillColor=none;align=left;verticalAlign=top;spacingLeft=4;spacingRight=4;overflow=hidden;rotatable=0;points=[[0,0.5],[1,0.5]];portConstraint=eastwest;whiteSpace=wrap;html=1;" vertex="1" parent="ox2kQ0siaJFA0jmCOrwc-31">
          <mxGeometry y="26" width="255" height="80" as="geometry" />
        </mxCell>
        <mxCell id="ox2kQ0siaJFA0jmCOrwc-33" value="" style="line;strokeWidth=1;fillColor=none;align=left;verticalAlign=middle;spacingTop=-1;spacingLeft=3;spacingRight=3;rotatable=0;labelPosition=right;points=[];portConstraint=eastwest;strokeColor=inherit;" vertex="1" parent="ox2kQ0siaJFA0jmCOrwc-31">
          <mxGeometry y="106" width="255" height="8" as="geometry" />
        </mxCell>
        <mxCell id="ox2kQ0siaJFA0jmCOrwc-34" value="&lt;font style=&quot;font-size: 10px;&quot;&gt;函数:&lt;/font&gt;&lt;div&gt;&lt;font style=&quot;font-size: 10px;&quot;&gt;Update(){//更新函数 负责便利更新tile字典中的所有tile.Update()方法};&lt;/font&gt;&lt;/div&gt;&lt;div&gt;&lt;font style=&quot;font-size: 10px;&quot;&gt;SaveData();&lt;/font&gt;&lt;/div&gt;&lt;div&gt;&lt;font style=&quot;font-size: 10px;&quot;&gt;LoadData();&lt;/font&gt;&lt;/div&gt;" style="text;strokeColor=none;fillColor=none;align=left;verticalAlign=top;spacingLeft=4;spacingRight=4;overflow=hidden;rotatable=0;points=[[0,0.5],[1,0.5]];portConstraint=eastwest;whiteSpace=wrap;html=1;" vertex="1" parent="ox2kQ0siaJFA0jmCOrwc-31">
          <mxGeometry y="114" width="255" height="116" as="geometry" />
        </mxCell>
        <mxCell id="ox2kQ0siaJFA0jmCOrwc-46" style="edgeStyle=orthogonalEdgeStyle;rounded=0;orthogonalLoop=1;jettySize=auto;html=1;entryX=0.5;entryY=0;entryDx=0;entryDy=0;" edge="1" parent="1" source="ox2kQ0siaJFA0jmCOrwc-36" target="ox2kQ0siaJFA0jmCOrwc-40">
          <mxGeometry relative="1" as="geometry" />
        </mxCell>
        <mxCell id="ox2kQ0siaJFA0jmCOrwc-47" value="引用" style="edgeLabel;html=1;align=center;verticalAlign=middle;resizable=0;points=[];" vertex="1" connectable="0" parent="ox2kQ0siaJFA0jmCOrwc-46">
          <mxGeometry x="-0.0299" y="3" relative="1" as="geometry">
            <mxPoint as="offset" />
          </mxGeometry>
        </mxCell>
        <mxCell id="ox2kQ0siaJFA0jmCOrwc-36" value="Item_tile:Prefab" style="swimlane;fontStyle=1;align=center;verticalAlign=top;childLayout=stackLayout;horizontal=1;startSize=26;horizontalStack=0;resizeParent=1;resizeParentMax=0;resizeLast=0;collapsible=1;marginBottom=0;whiteSpace=wrap;html=1;" vertex="1" parent="1">
          <mxGeometry x="740" y="389" width="255" height="141" as="geometry" />
        </mxCell>
        <mxCell id="ox2kQ0siaJFA0jmCOrwc-37" value="&lt;span style=&quot;font-size: 10px;&quot;&gt;Data_tile 继承ItemData&lt;/span&gt;" style="text;strokeColor=none;fillColor=none;align=left;verticalAlign=top;spacingLeft=4;spacingRight=4;overflow=hidden;rotatable=0;points=[[0,0.5],[1,0.5]];portConstraint=eastwest;whiteSpace=wrap;html=1;" vertex="1" parent="ox2kQ0siaJFA0jmCOrwc-36">
          <mxGeometry y="26" width="255" height="64" as="geometry" />
        </mxCell>
        <mxCell id="ox2kQ0siaJFA0jmCOrwc-38" value="" style="line;strokeWidth=1;fillColor=none;align=left;verticalAlign=middle;spacingTop=-1;spacingLeft=3;spacingRight=3;rotatable=0;labelPosition=right;points=[];portConstraint=eastwest;strokeColor=inherit;" vertex="1" parent="ox2kQ0siaJFA0jmCOrwc-36">
          <mxGeometry y="90" width="255" height="8" as="geometry" />
        </mxCell>
        <mxCell id="ox2kQ0siaJFA0jmCOrwc-39" value="&lt;font style=&quot;font-size: 10px;&quot;&gt;函数:Act(){玩家按下此按钮后获取鼠标位置 访问MapCore中的字典 通过鼠标位置作为坐标输入字典中进行查找&amp;nbsp;&lt;/font&gt;" style="text;strokeColor=none;fillColor=none;align=left;verticalAlign=top;spacingLeft=4;spacingRight=4;overflow=hidden;rotatable=0;points=[[0,0.5],[1,0.5]];portConstraint=eastwest;whiteSpace=wrap;html=1;" vertex="1" parent="ox2kQ0siaJFA0jmCOrwc-36">
          <mxGeometry y="98" width="255" height="43" as="geometry" />
        </mxCell>
        <mxCell id="ox2kQ0siaJFA0jmCOrwc-40" value="&lt;span style=&quot;font-size: 10px; font-weight: 400; text-align: left;&quot;&gt;Data_tile 继承ItemData&lt;/span&gt;" style="swimlane;fontStyle=1;align=center;verticalAlign=top;childLayout=stackLayout;horizontal=1;startSize=26;horizontalStack=0;resizeParent=1;resizeParentMax=0;resizeLast=0;collapsible=1;marginBottom=0;whiteSpace=wrap;html=1;" vertex="1" parent="1">
          <mxGeometry x="740" y="600" width="255" height="141" as="geometry" />
        </mxCell>
        <mxCell id="ox2kQ0siaJFA0jmCOrwc-41" value="&lt;span style=&quot;font-size: 10px;&quot;&gt;tileData 包含的tileData&amp;nbsp;&lt;/span&gt;" style="text;strokeColor=none;fillColor=none;align=left;verticalAlign=top;spacingLeft=4;spacingRight=4;overflow=hidden;rotatable=0;points=[[0,0.5],[1,0.5]];portConstraint=eastwest;whiteSpace=wrap;html=1;" vertex="1" parent="ox2kQ0siaJFA0jmCOrwc-40">
          <mxGeometry y="26" width="255" height="64" as="geometry" />
        </mxCell>
        <mxCell id="ox2kQ0siaJFA0jmCOrwc-42" value="" style="line;strokeWidth=1;fillColor=none;align=left;verticalAlign=middle;spacingTop=-1;spacingLeft=3;spacingRight=3;rotatable=0;labelPosition=right;points=[];portConstraint=eastwest;strokeColor=inherit;" vertex="1" parent="ox2kQ0siaJFA0jmCOrwc-40">
          <mxGeometry y="90" width="255" height="8" as="geometry" />
        </mxCell>
        <mxCell id="ox2kQ0siaJFA0jmCOrwc-43" value="&lt;font style=&quot;font-size: 10px;&quot;&gt;函数:&lt;/font&gt;" style="text;strokeColor=none;fillColor=none;align=left;verticalAlign=top;spacingLeft=4;spacingRight=4;overflow=hidden;rotatable=0;points=[[0,0.5],[1,0.5]];portConstraint=eastwest;whiteSpace=wrap;html=1;" vertex="1" parent="ox2kQ0siaJFA0jmCOrwc-40">
          <mxGeometry y="98" width="255" height="43" as="geometry" />
        </mxCell>
        <mxCell id="ox2kQ0siaJFA0jmCOrwc-44" style="edgeStyle=orthogonalEdgeStyle;rounded=0;orthogonalLoop=1;jettySize=auto;html=1;entryX=1;entryY=0.5;entryDx=0;entryDy=0;" edge="1" parent="1" source="ox2kQ0siaJFA0jmCOrwc-41" target="ox2kQ0siaJFA0jmCOrwc-2">
          <mxGeometry relative="1" as="geometry" />
        </mxCell>
        <mxCell id="ox2kQ0siaJFA0jmCOrwc-45" value="引用" style="edgeLabel;html=1;align=center;verticalAlign=middle;resizable=0;points=[];" vertex="1" connectable="0" parent="ox2kQ0siaJFA0jmCOrwc-44">
          <mxGeometry x="-0.002" y="3" relative="1" as="geometry">
            <mxPoint as="offset" />
          </mxGeometry>
        </mxCell>
        <mxCell id="ox2kQ0siaJFA0jmCOrwc-48" value="Grid" style="rounded=0;whiteSpace=wrap;html=1;" vertex="1" parent="1">
          <mxGeometry x="1150" y="487" width="120" height="60" as="geometry" />
        </mxCell>
        <mxCell id="ox2kQ0siaJFA0jmCOrwc-51" style="edgeStyle=orthogonalEdgeStyle;rounded=0;orthogonalLoop=1;jettySize=auto;html=1;entryX=0;entryY=0.5;entryDx=0;entryDy=0;" edge="1" parent="1" source="ox2kQ0siaJFA0jmCOrwc-49" target="ox2kQ0siaJFA0jmCOrwc-50">
          <mxGeometry relative="1" as="geometry" />
        </mxCell>
        <mxCell id="ox2kQ0siaJFA0jmCOrwc-56" style="edgeStyle=orthogonalEdgeStyle;rounded=0;orthogonalLoop=1;jettySize=auto;html=1;entryX=1;entryY=0.5;entryDx=0;entryDy=0;" edge="1" parent="1" source="ox2kQ0siaJFA0jmCOrwc-49" target="ox2kQ0siaJFA0jmCOrwc-48">
          <mxGeometry relative="1" as="geometry" />
        </mxCell>
        <mxCell id="ox2kQ0siaJFA0jmCOrwc-57" value="更新画面" style="edgeLabel;html=1;align=center;verticalAlign=middle;resizable=0;points=[];" vertex="1" connectable="0" parent="ox2kQ0siaJFA0jmCOrwc-56">
          <mxGeometry x="0.0312" y="-1" relative="1" as="geometry">
            <mxPoint as="offset" />
          </mxGeometry>
        </mxCell>
        <mxCell id="ox2kQ0siaJFA0jmCOrwc-49" value="数据字典" style="rounded=0;whiteSpace=wrap;html=1;" vertex="1" parent="1">
          <mxGeometry x="1380" y="487" width="120" height="60" as="geometry" />
        </mxCell>
        <mxCell id="ox2kQ0siaJFA0jmCOrwc-50" value="TileData&lt;div&gt;Grass&lt;/div&gt;&lt;div&gt;Water&lt;/div&gt;" style="rounded=0;whiteSpace=wrap;html=1;" vertex="1" parent="1">
          <mxGeometry x="1570" y="487" width="120" height="60" as="geometry" />
        </mxCell>
        <mxCell id="ox2kQ0siaJFA0jmCOrwc-53" style="edgeStyle=orthogonalEdgeStyle;rounded=0;orthogonalLoop=1;jettySize=auto;html=1;" edge="1" parent="1" source="ox2kQ0siaJFA0jmCOrwc-52" target="ox2kQ0siaJFA0jmCOrwc-49">
          <mxGeometry relative="1" as="geometry" />
        </mxCell>
        <mxCell id="ox2kQ0siaJFA0jmCOrwc-54" value="修改 传入Item的名字到数据字典中" style="edgeLabel;html=1;align=center;verticalAlign=middle;resizable=0;points=[];" vertex="1" connectable="0" parent="ox2kQ0siaJFA0jmCOrwc-53">
          <mxGeometry x="-0.0449" relative="1" as="geometry">
            <mxPoint as="offset" />
          </mxGeometry>
        </mxCell>
        <mxCell id="ox2kQ0siaJFA0jmCOrwc-66" style="edgeStyle=orthogonalEdgeStyle;rounded=0;orthogonalLoop=1;jettySize=auto;html=1;entryX=0.5;entryY=0;entryDx=0;entryDy=0;" edge="1" parent="1" source="ox2kQ0siaJFA0jmCOrwc-52" target="ox2kQ0siaJFA0jmCOrwc-62">
          <mxGeometry relative="1" as="geometry" />
        </mxCell>
        <mxCell id="ox2kQ0siaJFA0jmCOrwc-52" value="Item&amp;lt;-玩家控制" style="whiteSpace=wrap;html=1;aspect=fixed;" vertex="1" parent="1">
          <mxGeometry x="1300" y="654" width="80" height="80" as="geometry" />
        </mxCell>
        <mxCell id="ox2kQ0siaJFA0jmCOrwc-55" value="其子类只负责重写Update" style="rounded=0;whiteSpace=wrap;html=1;" vertex="1" parent="1">
          <mxGeometry x="1570" y="547" width="120" height="60" as="geometry" />
        </mxCell>
        <mxCell id="ox2kQ0siaJFA0jmCOrwc-62" value="耕地" style="swimlane;fontStyle=1;align=center;verticalAlign=top;childLayout=stackLayout;horizontal=1;startSize=26;horizontalStack=0;resizeParent=1;resizeParentMax=0;resizeLast=0;collapsible=1;marginBottom=0;whiteSpace=wrap;html=1;" vertex="1" parent="1">
          <mxGeometry x="1212.5" y="770" width="255" height="141" as="geometry" />
        </mxCell>
        <mxCell id="ox2kQ0siaJFA0jmCOrwc-63" value="&lt;font style=&quot;font-size: 10px;&quot;&gt;字段:&lt;/font&gt;&lt;div&gt;&lt;font style=&quot;font-size: 10px;&quot;&gt;float 耕地肥力 //控制作物生长速度的系数之一&lt;/font&gt;&lt;/div&gt;&lt;div&gt;&lt;font style=&quot;font-size: 10px;&quot;&gt;float 耕地水分 //控制作物是否能生长的条件之一&lt;/font&gt;&lt;/div&gt;&lt;div&gt;&lt;br&gt;&lt;/div&gt;" style="text;strokeColor=none;fillColor=none;align=left;verticalAlign=top;spacingLeft=4;spacingRight=4;overflow=hidden;rotatable=0;points=[[0,0.5],[1,0.5]];portConstraint=eastwest;whiteSpace=wrap;html=1;" vertex="1" parent="ox2kQ0siaJFA0jmCOrwc-62">
          <mxGeometry y="26" width="255" height="64" as="geometry" />
        </mxCell>
        <mxCell id="ox2kQ0siaJFA0jmCOrwc-64" value="" style="line;strokeWidth=1;fillColor=none;align=left;verticalAlign=middle;spacingTop=-1;spacingLeft=3;spacingRight=3;rotatable=0;labelPosition=right;points=[];portConstraint=eastwest;strokeColor=inherit;" vertex="1" parent="ox2kQ0siaJFA0jmCOrwc-62">
          <mxGeometry y="90" width="255" height="8" as="geometry" />
        </mxCell>
        <mxCell id="ox2kQ0siaJFA0jmCOrwc-65" value="&lt;font style=&quot;font-size: 10px;&quot;&gt;函数:&lt;/font&gt;" style="text;strokeColor=none;fillColor=none;align=left;verticalAlign=top;spacingLeft=4;spacingRight=4;overflow=hidden;rotatable=0;points=[[0,0.5],[1,0.5]];portConstraint=eastwest;whiteSpace=wrap;html=1;" vertex="1" parent="ox2kQ0siaJFA0jmCOrwc-62">
          <mxGeometry y="98" width="255" height="43" as="geometry" />
        </mxCell>
      </root>
    </mxGraphModel>
  </diagram>
</mxfile>
